<?xml version="1.0" encoding="utf-8"?>
<!-- Generator: Adobe Illustrator 23.0.1, SVG Export Plug-In . SVG Version: 6.00 Build 0)  -->
<svg version="1.1" id="Lager_1" xmlns="http://www.w3.org/2000/svg" xmlns:xlink="http://www.w3.org/1999/xlink" x="0px" y="0px"
	 viewBox="0 0 1417.3 358.4" style="enable-background:new 0 0 1417.3 358.4;" xml:space="preserve">
<style type="text/css">
	.st0{fill:#FFFFFF;}
</style>
<g>
	<g>
		<circle class="st0" cx="178.8" cy="174.6" r="9.7"/>
		<g>
			<path class="st0" d="M258.5,238.3l-37.8-38.9l52.9,12.3l0.4,0.1l0.2,0.1l0.2,0c2,0.4,2.4,0.6,4.9,4.9c0.6,1.1,1.3,2.3,2.1,3.5
				c4.6,7,10.9,12.9,18.4,17.2l0.2,0.1l0.2,0.1c1.3,0.7,12.5,6.5,19.7,9.6l14.6,6.3l2.5-15.8c0.2-1.4,0.3-2.9,0.3-4.4
				c0-4.6-1.1-10.3-3.3-16.7c5-2.9,15.3-9.7,19.3-17.5l2.1-4.1l-1-4.5c-1.5-6.4-6.1-11.5-13.3-16.1c5.5-3.5,11.6-8.7,13.3-16.1
				l1-4.5l-2.1-4.1c-3.4-6.4-11.9-13.3-19.4-17.9c2.2-6.4,3.3-12,3.3-16.7c0-1.5-0.1-3-0.3-4.4l-2.5-15.8l-14.6,6.3
				c-7.2,3.1-18.4,8.9-19.7,9.6l-0.2,0.1l-0.2,0.1l-0.1,0.1c-7.4,4.3-13.7,10.2-18.3,17.1c-0.8,1.2-1.5,2.4-2.1,3.5
				c-1.4,2.4-2.3,3.9-3.2,4.4c-0.4,0.2-1,0.4-1.7,0.6l-0.3,0.1l-0.3,0.1l0.1,0l-52.8,12.9l37.4-39.4l0.1-0.1l0.2-0.2l0.1-0.2
				c0.5-0.6,1-1,1.4-1.2c0.9-0.5,2.6-0.5,5.4-0.6c1.2,0,2.6,0,4.1-0.1c8.3-0.5,16.5-3,24-7.3l0.1-0.1l0.2-0.1l0.2-0.1
				c1.2-0.8,11.9-7.6,18.2-12.3l12.8-9.5l-12.4-10c-1.1-0.9-2.3-1.7-3.6-2.5c-4-2.3-9.5-4.2-16.2-5.5c0-8.4-1.4-19.1-5.4-25.5
				l-2.5-3.9l-4.4-1.3c-7.3-2.2-14.8,0.5-20.6,3.5c-0.4-8.6-2.5-15.1-7.3-19.6l-3.4-3.1l-4.6-0.2c-8.9-0.4-20.3,5.1-25.2,7.8
				C215.3,13.7,211,10,207,7.6c-1.3-0.7-2.6-1.4-3.9-1.9L188.2,0l-1.9,15.8c-0.9,7.8-1.5,20.4-1.5,21.8l0,0.3l0,0.3
				c0,8.6,1.9,17.1,5.7,24.5c0.7,1.3,1.4,2.5,2,3.6c2.5,4.4,2.5,4.8,1.8,6.7l-0.1,0.3l-0.1,0.3l-15.3,52.1l-15.3-52.1l-0.1-0.3
				l-0.1-0.3c-0.7-2-0.7-2.3,1.8-6.7c0.6-1.1,1.3-2.3,2-3.6c3.7-7.4,5.7-15.9,5.7-24.5l0-0.3l0-0.3c-0.1-1.4-0.6-14.1-1.5-21.8
				L169.3,0l-14.9,5.8c-1.3,0.5-2.7,1.2-3.9,1.9c-4,2.3-8.3,6.1-12.8,11.2c-7.7-4.2-18-8.1-25.2-7.8l-4.6,0.2l-3.4,3.1
				c-4.8,4.5-6.9,11-7.3,19.6C89.7,30,83,28.6,76.7,30.5l-4.4,1.3l-2.5,3.9c-4,6.4-5.4,17-5.4,25.5c-6.7,1.3-12.1,3.2-16.2,5.5
				c-1.3,0.7-2.5,1.6-3.6,2.5l-12.4,10L45,88.7c6.3,4.7,17,11.5,18.2,12.3l0.2,0.1l0.2,0.1c7.4,4.3,15.8,6.9,24.1,7.3
				c1.5,0.1,2.9,0.1,4.1,0.1c5.1,0,5.4,0.2,6.7,1.8l0.1,0.2l0.2,0.2l0.2,0.1l37.4,39.4l-52.8-13l0,0l-0.3-0.1l-0.3-0.1
				c-2-0.4-2.4-0.6-4.9-4.9c-0.6-1.1-1.3-2.3-2.1-3.5c-4.6-7-10.9-12.9-18.4-17.2l-0.2-0.1l-0.2-0.1c-1.3-0.7-12.5-6.5-19.7-9.6
				l-14.6-6.3l-2.5,15.8c-0.2,1.4-0.3,2.9-0.3,4.4c0,4.6,1.1,10.2,3.3,16.7c-4.8,3-15.2,10.1-19.4,17.9l-2.1,4.1l1,4.5
				c1.5,6.4,6.1,11.5,13.3,16.1c-5.5,3.5-11.6,8.7-13.3,16.1l-1,4.5l2.1,4.1c3.5,6.7,12.1,13.2,19.3,17.4
				c-2.2,6.5-3.3,12.1-3.3,16.8c0,1.5,0.1,3,0.3,4.4l2.5,15.8l14.6-6.3c7.2-3.1,18.4-8.9,19.7-9.6l0.2-0.1l0.2-0.1l0.1-0.1
				c7.4-4.3,13.7-10.2,18.3-17.1c0.8-1.2,1.5-2.4,2.1-3.5c1.4-2.4,2.3-3.9,3.2-4.4c0.4-0.2,1-0.4,1.7-0.6l0.2,0l0.2-0.1l0.3-0.1
				l53.2-12.2l-38,38.8l0,0l-0.2,0.2l-0.2,0.2c-0.5,0.6-1,1-1.4,1.2c-0.9,0.5-2.6,0.5-5.4,0.6c-1.2,0-2.6,0-4.1,0.1
				c-8.3,0.5-16.5,3-24,7.3l-0.1,0.1l-0.2,0.1l-0.2,0.1c-1.2,0.8-11.9,7.6-18.2,12.3l-12.8,9.5l12.4,10c1.1,0.9,2.3,1.7,3.6,2.5
				c4,2.3,9.4,4.2,16.1,5.5c0.2,8.8,2,19.6,5.8,25.7l2.5,3.9l4.4,1.3c7.3,2.2,14.8-0.5,20.6-3.5c0.4,8.6,2.5,15.1,7.3,19.6l3.4,3.1
				l4.6,0.2c8.7,0.4,19.8-5.2,24.8-8c4.5,5.1,8.8,8.9,12.8,11.2c1.3,0.7,2.6,1.4,3.9,1.9l14.9,5.8l1.9-15.8
				c0.9-7.8,1.5-20.4,1.5-21.8l0-0.3l0-0.3c0-8.6-1.9-17.1-5.7-24.5c-0.7-1.3-1.4-2.5-2-3.6c-2.5-4.4-2.5-4.8-1.8-6.7l0.1-0.2
				l0.1-0.2l0-0.1l1-3.3l14.4-48.8l14.4,48.8l1,3.3l0,0.1l0.1,0.2l0.1,0.2c0.7,2,0.7,2.3-1.8,6.7c-0.6,1.1-1.3,2.3-2,3.6
				c-3.7,7.4-5.7,15.9-5.7,24.5l0,0.3l0,0.3c0.1,1.4,0.6,14.1,1.5,21.8l1.9,15.8l14.9-5.8c1.3-0.5,2.7-1.2,3.9-1.9
				c4-2.3,8.3-6.1,12.9-11.2c7.3,4.2,17.2,8.3,24.8,8l4.6-0.2l3.4-3.1c4.8-4.5,6.9-11,7.3-19.6c7.6,3.9,14.3,5.4,20.6,3.5l4.4-1.3
				l2.5-3.9c3.9-6.1,5.6-17,5.8-25.7c6.7-1.3,12.1-3.1,16.1-5.5c1.3-0.7,2.5-1.6,3.6-2.5l12.4-10l-12.8-9.5
				c-6.3-4.7-17-11.5-18.2-12.3l-0.2-0.1l-0.2-0.1c-7.4-4.3-15.8-6.9-24.1-7.3c-1.5-0.1-2.9-0.1-4.1-0.1c-5.1,0-5.4-0.2-6.7-1.8
				l-0.2-0.2L258.5,238.3L258.5,238.3z M249.7,246.9c6.3,7.2,12.7,5.7,19.5,6.1c6.4,0.4,12.8,2.3,18.6,5.7
				c0.8,0.5,11.4,7.3,17.4,11.7c-0.6,0.5-1.3,1-2,1.4c-7.1,4.1-20.3,5.2-20.4,5.2l-3-0.4l0.7,3.3c1.2,5.2,0.1,21.5-3.5,27.2
				c-8.1,2.5-26.2-12.5-31.3-16.5c0.9,6.5,4.8,29.6-1.4,35.4c-6.7,0.3-20.9-7.2-24.8-10.9l-2.5-2.3l-1.1,2.8
				c0,0.1-7.9,11.1-14.9,15.2c-0.7,0.4-1.5,0.8-2.2,1.1c-0.9-7.4-1.4-20-1.5-20.9c0-6.7,1.5-13.2,4.4-18.9c3-6,7.5-10.9,4.4-19.9
				l0,0l-21.4-72.7c-0.3-1.6-1.3-3.1-2.8-4c-2.8-1.6-6.4-0.7-8.1,2.2c-0.3,0.6-0.7,1.8-0.7,1.8l-21.4,72.7v0
				c-3.1,9,1.4,13.9,4.4,19.9c2.9,5.7,4.4,12.3,4.4,18.9c0,0.9-0.6,13.6-1.5,20.9c-0.8-0.3-1.5-0.7-2.2-1.1
				c-7.1-4.1-14.9-15.1-14.9-15.2l-1.1-2.8l-2.5,2.3c-1.2,1.1-3.3,2.6-5.9,4.1c-5.9,3.4-14.2,7-18.9,6.8c-6.2-5.8-2.3-28.9-1.4-35.4
				c-3,2.3-10.3,8.3-17.4,12.4c-5.3,3-10.5,5.1-13.9,4.1c-3.6-5.7-4.7-22-3.5-27.2l0.7-3.3l-3,0.4c-0.1,0-13.4-1.1-20.4-5.2
				c-0.7-0.4-1.4-0.9-2-1.4c6-4.4,16.6-11.2,17.4-11.7c0,0,0.1,0,0.1-0.1c5.8-3.3,12.1-5.3,18.5-5.6c5.1-0.3,10.1,0.5,15-2.3
				c1.5-0.9,3-2.1,4.5-3.8l0,0l52.9-54c1.2-1.1,2.1-2.6,2.1-4.4c0-3.3-2.6-5.9-5.8-6c-0.7,0-1.9,0.2-1.9,0.2l-73.9,17l-0.5,0.1
				c-2.2,0.4-4,1.1-5.5,2c-4.9,2.8-6.7,7.5-9.5,11.8c-3.5,5.3-8.4,9.9-14.1,13.2c0,0-0.1,0-0.1,0.1c-0.8,0.4-12,6.3-18.9,9.2
				c-0.1-0.8-0.2-1.6-0.2-2.5c0-8.2,5.6-20.4,5.7-20.5l1.8-2.4l-3.2-1c-5.1-1.6-18.7-10.1-21.8-16c0.8-3.5,5.2-7,10.5-10
				c7.2-4.1,16-7.5,19.5-8.9c-6.1-2.5-28-10.6-29.9-18.9c2.3-4.4,10.5-10.6,16.6-14.2c2.1-1.2,3.9-2.1,5.2-2.5l3.2-1l-1.8-2.4
				c-0.1-0.1-5.7-12.1-5.7-20.3c0-0.8,0.1-1.6,0.2-2.5c6.8,2.9,18,8.8,18.9,9.2c5.8,3.3,10.7,7.9,14.2,13.3c3.7,5.6,5.7,12,15,13.8
				l0,0l73.6,18.1c0,0,1.3,0.3,1.9,0.3c3.3,0,5.9-2.6,5.9-5.9c0-1.8-0.8-3.3-2-4.4l-52.1-55l-0.1-0.1c-6.3-7.2-12.7-5.7-19.5-6.1
				c-6.4-0.4-12.8-2.3-18.6-5.7C69,90,58.4,83.2,52.4,78.8c0.6-0.5,1.3-1,2-1.4c7.1-4.1,20.5-5.3,20.6-5.3l3,0.4l-0.7-3.3
				c-1.2-5.2-0.6-21.2,3-26.9c8.1-2.5,26.2,12.5,31.3,16.5c-0.9-6.5-4.8-29.6,1.4-35.4c6.7-0.3,21.4,6.9,25.3,10.5l2.5,2.3l1.1-2.8
				c0-0.1,7.7-11,14.7-15.1c0.7-0.4,1.5-0.8,2.2-1.1c0.9,7.4,1.4,20,1.5,20.9c0,6.7-1.5,13.2-4.4,18.9c-3,6-7.5,10.9-4.4,19.9
				l21.4,72.7c0.3,1.6,1.3,3.1,2.8,4c2.8,1.6,6.4,0.7,8.1-2.2c0.3-0.6,0.7-1.8,0.7-1.8l21.4-72.7c3.1-9-1.4-13.9-4.4-19.9
				c-2.9-5.7-4.4-12.3-4.4-18.9c0-0.9,0.6-13.6,1.5-20.9c0.8,0.3,1.5,0.7,2.2,1.1c7.1,4.1,14.7,15,14.7,15.1l1.1,2.8l2.5-2.3
				c1-0.9,2.7-2.1,4.8-3.3c6.1-3.5,15.5-7.5,20.5-7.3c6.2,5.8,2.3,28.9,1.4,35.4c3-2.3,10.3-8.3,17.4-12.4c5.3-3,10.5-5.1,13.9-4.1
				c3.6,5.7,4.2,21.7,3,26.9l-0.7,3.3l3-0.4c0.1,0,13.6,1.2,20.6,5.3c0.7,0.4,1.4,0.9,2,1.4c-6,4.4-16.6,11.2-17.4,11.7
				c0,0-0.1,0-0.1,0.1c-5.8,3.3-12.1,5.3-18.5,5.6c-5.1,0.3-10.1-0.5-15,2.3c-1.5,0.9-3,2.1-4.5,3.8l0,0l-52.1,55
				c-1.2,1.1-2,2.7-2,4.4c0,3.3,2.7,5.9,5.9,5.9c0.7,0,1.9-0.3,1.9-0.3l73.6-18l-0.1,0c2.2-0.4,4-1.1,5.5-2
				c4.9-2.8,6.7-7.5,9.5-11.8c3.5-5.3,8.4-9.9,14.1-13.2c0,0,0.1,0,0.1-0.1c0.8-0.4,12-6.3,18.9-9.2c0.1,0.8,0.2,1.6,0.2,2.5
				c0,8.2-5.6,20.2-5.7,20.3l-1.8,2.4l3.2,1c5.1,1.6,18.7,10.7,21.8,16.7c-0.8,3.5-5.2,7-10.5,10c-7.2,4.1-16,7.5-19.5,8.9
				c6.1,2.5,28,10.6,29.9,18.9c-2.2,4.1-9.4,9.5-15.3,12.9c-2.6,1.5-4.9,2.6-6.5,3.1l-3.2,1l1.8,2.4c0.1,0.1,5.7,12.4,5.7,20.5
				c0,0.8-0.1,1.6-0.2,2.5c-6.8-2.9-18-8.8-18.9-9.2c-5.8-3.3-10.7-7.9-14.2-13.3c-3.7-5.6-5.7-12-15-13.8l-0.4-0.1l-73.8-17.2
				c-1.6-0.5-3.3-0.4-4.8,0.5c-2.8,1.7-3.7,5.3-2.1,8.1c0.3,0.6,1.2,1.5,1.2,1.5L249.7,246.9L249.7,246.9z"/>
		</g>
	</g>
	<g>
		<g>
			<g>
				<path class="st0" d="M420.6,42.8h-20.3h-0.6v0.6v87.5v0.6h0.6h12.1h0.6v-0.6v-37h5.2c6.3,0,10.6,0.7,12.9,2.1
					c2.5,1.7,5.3,5.8,8.3,12.2l10.6,22.8l0.2,0.3h0.4h12.9h0.9l-0.4-0.8L452,105.3c-3.1-6.6-5.5-10.6-7.3-12.4
					c-1.5-1.5-3.2-2.5-4.9-3.1c4.6-1,8.5-3.2,11.7-6.5c3.9-4,5.9-9.3,5.9-15.6c0-7.2-2.5-13.2-7.3-17.9c-3.4-3.2-7.8-5.3-13.1-6.3
					C433.9,43,428.4,42.8,420.6,42.8L420.6,42.8z M413,53.2h8.9c4.9,0,8.3,0.2,10.2,0.5c3.4,0.6,6.1,1.9,8.2,3.9
					c2.5,2.4,3.8,5.8,3.8,10.1c0,4.3-1.5,7.8-4.4,10.6c-2.5,2.4-5.9,3.9-10.3,4.6c-2.4,0.3-6.7,0.5-12.8,0.5H413V53.2L413,53.2z"/>
			</g>
			<g>
				<path class="st0" d="M499.3,64.9c-9.4,0-17,3.2-22.8,9.6c-5.7,6.4-8.7,14.9-8.7,25.3c0,10,2.8,18.1,8.4,24.2
					c5.8,6.4,13.8,9.6,23.8,9.6c9,0,17.3-2.4,24.5-7l0.5-0.3l-0.3-0.5l-4.4-7.7l-0.3-0.5l-0.5,0.2c-6.8,3.3-13.1,5-18.6,5
					c-6.6,0-11.8-2.1-15.5-6.2c-3.2-3.6-4.8-8.2-4.8-13.7h45.7h0.6v-0.6c0-0.2,0-0.8,0.1-2.3c0.1-1.3,0.1-2.1,0.1-2.5
					c0-10.1-2.5-18.2-7.5-24C514.8,67.9,507.9,64.9,499.3,64.9L499.3,64.9z M480.9,93c0.5-5.3,2.5-9.6,5.8-12.9
					c3.4-3.3,7.7-5,12.8-5c5.4,0,9.4,2.1,12.2,6.4c2,3.2,3.1,7.1,3.2,11.5H480.9L480.9,93z"/>
			</g>
			<g>
				<path class="st0" d="M571.7,64.9c-10,0-18.3,3.4-24.8,10c-6.4,6.6-9.7,15.1-9.7,25.1c0,9.2,2.6,16.9,7.8,22.9
					c5.5,6.3,12.7,9.5,21.6,9.5c5.7,0,11.6-1.6,17.6-4.7v3.7c0,4.6-0.2,8-0.7,10c-0.5,2.5-1.7,4.7-3.5,6.4
					c-3.1,2.8-7.7,4.2-13.8,4.2c-4.6,0-9.3-1-13.9-3c-0.2-0.1-1.3-0.7-6.3-3.4l-0.5-0.3l-0.3,0.4l-5.1,7.6l-0.2,0.4l0.3,0.3
					c1.3,1.4,3.8,3,7.9,4.8c5.9,2.6,12.4,3.9,19.2,3.9c9.9,0,17.6-2.6,22.9-7.8c2.9-2.9,4.9-6.6,5.9-10.9c0.6-2.7,0.8-6.8,0.8-12.1
					V71.5v-0.4l-0.3-0.1C587.2,67,578.8,64.9,571.7,64.9L571.7,64.9z M568.6,121.8c-5.4,0-9.9-2-13.3-6.1c-3.5-4-5.2-9.5-5.2-16.1
					c0-7.2,2-13,5.9-17.4c3.9-4.3,9.1-6.5,15.4-6.5c4.4,0,8.6,0.8,12.7,2.5v38.6C578.7,120.1,573.5,121.8,568.6,121.8L568.6,121.8z"
					/>
			</g>
			<g>
				<path class="st0" d="M620.5,42.1c-2.2,0-4,0.7-5.5,2.2c-1.5,1.4-2.2,3.2-2.2,5.3c0,2.1,0.8,3.9,2.2,5.3c1.5,1.4,3.3,2.2,5.5,2.2
					c2.2,0,4-0.7,5.5-2.2c1.5-1.4,2.2-3.2,2.2-5.3c0-2.1-0.8-3.9-2.2-5.3C624.5,42.8,622.7,42.1,620.5,42.1L620.5,42.1z M627,66.7
					h-0.6h-11.7h-0.6v0.6v64.5v0.6h0.6h11.7h0.6v-0.6V67.2V66.7L627,66.7z"/>
			</g>
			<g>
				<path class="st0" d="M672.2,64.9c-9.7,0-17.7,3.2-23.6,9.6c-5.9,6.3-8.9,14.7-8.9,25c0,10.2,2.9,18.6,8.7,24.8
					c5.8,6.3,13.4,9.4,22.8,9.4c9.7,0,17.6-3.2,23.5-9.4c5.8-6.2,8.8-14.6,8.8-24.8c0-10.4-2.9-18.8-8.6-25.1
					C689.2,68.1,681.5,64.9,672.2,64.9L672.2,64.9z M671.9,123.1c-5.6,0-10.2-2.2-13.8-6.6c-3.6-4.4-5.5-10.3-5.5-17.5
					c0-7.1,1.7-12.9,5.2-17.2c3.4-4.3,8-6.4,13.8-6.4c5.6,0,10.2,2.2,13.8,6.6c3.6,4.4,5.4,10.4,5.4,17.6c0,7.3-1.7,13.1-5,17.3
					C682.5,121,677.8,123.1,671.9,123.1L671.9,123.1z"/>
			</g>
			<g>
				<path class="st0" d="M747.5,64.9c-6.9,0-13.7,2-20.2,6.1v-3.8v-0.6h-0.6h-10.4h-0.6v0.6v64.5v0.6h0.6H728h0.6v-0.6V81
					c1.1-0.7,2.9-1.6,5.4-2.7c4.1-1.7,8-2.6,11.4-2.6c3.9,0,6.9,1,8.9,3c1.5,1.4,2.4,3.5,2.9,6.2c0.4,1.9,0.5,5.3,0.5,10.2v36.6v0.6
					h0.6H770h0.6v-0.6V94.3c0-6-0.3-10.5-1-13.3c-0.9-4-2.9-7.4-5.8-10.3C759.9,66.9,754.4,64.9,747.5,64.9L747.5,64.9z"/>
			</g>
		</g>
		<g>
			<g>
				<path class="st0" d="M506.1,248.4c0,19.6-5.7,35.5-17,47.6c-11.3,12.2-26,18.3-44.1,18.3c-17.5,0-32-6.1-43.3-18.3
					c-11.3-12.2-17-27.7-17-46.7c0-19.3,5.7-35.1,17-47.2c11.3-12.2,26.1-18.3,44.3-18.3c17.6,0,32.1,6,43.3,18.1
					C500.5,214,506.1,229.5,506.1,248.4z M487.8,247.9c0-14.9-4-26.9-11.9-36c-8-9.1-18.3-13.6-31.1-13.6
					c-12.6,0-22.7,4.6-30.4,13.9c-7.6,9.3-11.4,21.6-11.4,36.9c0,15.1,4,27.3,12.1,36.7c8.1,9.4,18.3,14.1,30.7,14.1
					c13.4,0,23.9-5,31.5-14.9C484.2,275.5,487.8,263.2,487.8,247.9z M440,166.6c0,2.8-1.1,5.2-3.2,7.2c-2.1,2-4.6,3-7.6,3
					c-2.9,0-5.4-1-7.5-3c-2.1-2-3.1-4.4-3.1-7.2c0-2.8,1-5.2,3.1-7.2c2.1-2,4.5-3,7.5-3c2.9,0,5.4,1,7.6,3
					C438.9,161.4,440,163.8,440,166.6z M473,166.6c0,2.8-1.1,5.2-3.2,7.2c-2.1,2-4.6,3-7.6,3c-2.9,0-5.4-1-7.5-3
					c-2.1-2-3.1-4.4-3.1-7.2c0-2.8,1-5.2,3.1-7.2c2.1-2,4.5-3,7.5-3c2.9,0,5.4,1,7.6,3C472,161.4,473,163.8,473,166.6z"/>
			</g>
			<g>
				<path class="st0" d="M586.1,285.9c0,9-3.4,16.2-10.3,21.5c-6.8,5.3-15.2,8-25,8c-8.1,0-15.9-1.5-23.3-4.4
					c-4.5-1.9-7.8-3.6-9.8-5.2l6.4-11.7c9,4.9,17.6,7.4,25.7,7.4c5.3,0,9.7-1.3,13.2-4c3.5-2.7,5.3-6.1,5.3-10.4
					c0-5.3-4.1-10-12.3-13.9c-7.6-3.6-15.2-7.2-22.9-10.9c-8.2-5.3-12.3-12.3-12.3-21.1c0-8.1,3.2-14.7,9.5-19.7
					c6.3-5,14.4-7.6,24.2-7.6c13.1,0,23.3,2.9,30.5,8.6l-6.4,11.3c-7.7-4.4-15.3-6.6-22.9-6.6c-5.7,0-10.1,1.2-13.1,3.7
					c-3.1,2.5-4.6,5.5-4.6,9.3c0,4.9,4.2,9.4,12.5,13.3c14.9,7,22.6,10.7,23.1,11.1C581.9,270,586.1,277.1,586.1,285.9z"/>
			</g>
			<g>
				<path class="st0" d="M661.7,310c-6.2,3.4-13.1,5.2-20.7,5.2c-9.6,0-16.8-2.5-21.7-7.4c-3.1-3.1-5-7.2-5.8-12.5
					c-0.4-2.4-0.6-7.6-0.6-15.7v-49.2H596v-13.9H613v-27.1h16.9v27.1h29.7v13.9h-29.7v52c0,6.2,0.7,10.5,2,12.7
					c2,3.7,6,5.6,12.1,5.6c3.2,0,7.6-0.9,13.3-2.6L661.7,310z"/>
			</g>
			<g>
				<path class="st0" d="M752.5,262c0,0.7-0.1,1.9-0.2,3.7c-0.1,1.8-0.2,3-0.2,3.5H685c-0.1,8.9,2.3,16.2,7.2,21.9
					c5.6,6.4,13.3,9.6,23.1,9.6c8.1,0,17.2-2.5,27.3-7.6l6.4,11.5c-10.4,6.9-22,10.4-35,10.4c-14.3,0-25.6-4.7-33.8-14.1
					c-8-9-11.9-20.9-11.9-35.6c0-15.4,4.1-27.8,12.3-37.2c8.2-9.4,19-14.1,32.4-14.1c12.2,0,21.9,4.3,29,12.8
					C749,235.2,752.5,247,752.5,262z M736.2,255.8c0-7.2-1.6-13.3-4.8-18.5c-4.1-6.6-10.2-10-18.3-10c-7.6,0-13.9,2.6-19.1,7.8
					c-5.2,5.2-8.1,12.1-8.8,20.7H736.2z"/>
				<path class="st0" d="M685,255.8l0,0.2"/>
			</g>
			<g>
				<path class="st0" d="M827.2,215.6l-4,13.5c-2.3-0.4-4.6-0.6-7.2-0.6c-11,0-20.5,5.2-28.5,15.7v68.5h-16.9v-96.4h15.1V229
					c2.1-2.8,5-5.4,8.6-8c6.8-4.8,14.3-7.2,22.5-7.2C820.5,213.8,824,214.4,827.2,215.6z"/>
			</g>
			<g>
				<path class="st0" d="M914,313.2c0,8-0.4,13.9-1.2,17.9c-1.5,6.4-4.2,11.7-8.4,15.9c-7.6,7.6-18.4,11.3-32.6,11.3
					c-9.8,0-19-1.9-27.5-5.8c-5.7-2.7-9.4-5-11.1-7l7.4-11.3c5.6,3.2,8.6,4.9,9.2,5.2c6.9,3.1,13.7,4.6,20.5,4.6
					c9,0,15.9-2.2,20.5-6.6c2.8-2.7,4.6-6,5.4-10c0.7-3.1,1-8.1,1-15.1v-7c-9,5-17.8,7.6-26.3,7.6c-12.6,0-22.8-4.6-30.7-13.9
					c-7.4-8.9-11.1-20.1-11.1-33.6c0-14.9,4.6-27.2,13.8-36.9c9.2-9.8,21-14.6,35.3-14.6c10.4,0,22.3,3,35.8,9V313.2z M897.1,290.9
					v-58.7c-6.2-2.7-12.7-4-19.3-4c-9.4,0-17.1,3.4-22.9,10.1c-5.8,6.7-8.8,15.6-8.8,26.6c0,10.2,2.6,18.4,7.8,24.7
					c5.2,6.2,11.8,9.4,19.9,9.4C881.1,298.8,888.8,296.2,897.1,290.9z"/>
			</g>
			<g>
				<path class="st0" d="M1022.9,264.6c0,15.1-4.2,27.3-12.5,36.5c-8.4,9.2-19.5,13.8-33.4,13.8c-13.4,0-24.2-4.6-32.4-13.8
					c-8.2-9.2-12.3-21.4-12.3-36.5c0-15.1,4.2-27.4,12.6-36.7c8.4-9.4,19.6-14,33.5-14c13.4,0,24.2,4.6,32.3,13.8
					C1018.8,236.9,1022.9,249.2,1022.9,264.6z M1006,264.8c0-11-2.7-19.9-8.1-26.8c-5.4-6.8-12.2-10.3-20.6-10.3
					c-8.6,0-15.5,3.3-20.6,10c-5.1,6.6-7.7,15.4-7.7,26.3c0,11,2.7,19.9,8.2,26.7c5.4,6.8,12.3,10.2,20.7,10.2
					c8.9,0,15.8-3.2,20.7-9.7C1003.5,284.7,1006,275.9,1006,264.8z M971.9,195.1c0,2.9-1.1,5.4-3.2,7.5c-2.1,2.1-4.6,3.1-7.6,3.1
					c-2.9,0-5.4-1-7.5-3.1c-2.1-2.1-3.1-4.5-3.1-7.5c0-2.9,1-5.4,3.1-7.5c2.1-2.1,4.5-3.1,7.5-3.1c2.9,0,5.4,1,7.6,3.1
					C970.8,189.7,971.9,192.2,971.9,195.1z M1005,195.1c0,2.9-1.1,5.4-3.2,7.5c-2.1,2.1-4.6,3.1-7.6,3.1c-2.9,0-5.4-1-7.5-3.1
					c-2.1-2.1-3.1-4.5-3.1-7.5c0-2.9,1-5.4,3.1-7.5c2.1-2.1,4.5-3.1,7.5-3.1c2.9,0,5.4,1,7.6,3.1
					C1003.9,189.7,1005,192.2,1005,195.1z"/>
			</g>
			<g>
				<path class="st0" d="M1094.1,310c-6.2,3.4-13.1,5.2-20.7,5.2c-9.6,0-16.8-2.5-21.7-7.4c-3.1-3.1-5-7.2-5.8-12.5
					c-0.4-2.4-0.6-7.6-0.6-15.7v-49.2h-16.9v-13.9h16.9v-27.1h16.9v27.1h29.7v13.9h-29.7v52c0,6.2,0.7,10.5,2,12.7
					c2,3.7,6,5.6,12.1,5.6c3.2,0,7.6-0.9,13.3-2.6L1094.1,310z"/>
			</g>
			<g>
				<path class="st0" d="M1125.7,312.8h-16.9V169.2h16.9V312.8z"/>
			</g>
			<g>
				<path class="st0" d="M1219.3,312.8h-15.1v-7.2c-10.4,6.1-20.2,9.2-29.5,9.2c-9.3,0-16.8-2.8-22.5-8.3
					c-5.7-5.5-8.6-12.7-8.6-21.6c0-21.8,18.3-32.6,54.9-32.6h4.4v-6.2c0-6.4-1.3-10.9-4-13.5c-3.3-3.3-9-5-16.9-5
					c-8.8,0-17.6,2.5-26.5,7.6l-6.2-11.3c1.9-1.6,5.1-3.4,9.8-5.4c7.6-3.1,15.7-4.6,24.5-4.6c12.1,0,21.4,3.3,27.9,9.8
					c3.3,3.3,5.5,7.4,6.6,12.1c0.8,3.5,1.2,9,1.2,16.5V312.8z M1202.9,293.9V265h-5c-17,0-28.3,2.8-33.8,8.4
					c-2.9,2.9-4.4,6.6-4.4,11.1c0,4.9,1.7,8.9,5.1,11.9c3.4,3.1,8.1,4.6,14,4.6C1185.2,301,1193.2,298.6,1202.9,293.9z"/>
			</g>
			<g>
				<path class="st0" d="M1316.6,312.8h-16.9V258c0-7.3-0.3-12.4-0.8-15.3c-0.7-4.2-2.1-7.5-4.4-9.8c-3.2-3.2-7.7-4.8-13.5-4.8
					c-5.2,0-10.8,1.3-16.9,4c-4,1.7-6.8,3.2-8.4,4.4v76.2h-16.9v-96.4h15.1v7.2c9.7-6.5,19.7-9.8,30.1-9.8c9.8,0,17.5,2.8,23.1,8.4
					c4.1,4.1,6.8,9.1,8.2,14.9c0.9,4.1,1.4,10.7,1.4,19.7V312.8z"/>
			</g>
			<g>
				<path class="st0" d="M1417.3,312.8h-15.1v-7.6c-7.6,6.5-16.6,9.8-27.1,9.8c-12.7,0-23-4.5-30.9-13.6
					c-7.8-9.1-11.7-20.9-11.7-35.5c0-15.4,4.4-27.9,13.3-37.5c8.9-9.6,20.1-14.4,33.6-14.4c7.6,0,14.5,1.9,20.9,5.8v-50.4h16.9
					V312.8z M1400.4,292.3v-57.7c-6-4.2-12.4-6.4-19.3-6.4c-9.4,0-17,3.4-22.8,10.2c-5.8,6.8-8.7,15.9-8.7,27.5
					c0,10.4,2.7,18.7,8.1,25.2c5.4,6.4,12.2,9.7,20.4,9.7C1384.9,300.6,1392.3,297.8,1400.4,292.3z"/>
			</g>
		</g>
	</g>
</g>
</svg>
